//// ------------------------------------------------------
//// THIS FILE WAS AUTOMATICALLY GENERATED (DO NOT MODIFY)
//// ------------------------------------------------------

Table Recipe {
  id String [pk]
  name String [unique, not null]
  createdAt DateTime [default: `now()`, not null]
  updatedAt DateTime [default: `now()`, not null]
  deletedAt DateTime
  sections RecipeSection [not null]
  pointerIngredient Ingredient
  SourceType RecipeSource
  SourceData String
  images RecipeImage [not null]
}

Table RecipeSection {
  id String [pk]
  recipe Recipe [not null]
  recipeId String [not null]
  name String
  createdAt DateTime [default: `now()`, not null]
  updatedAt DateTime [default: `now()`, not null]
  deletedAt DateTime
  ingredients RecipeSectionIngredient [not null]
  instructions Json[] [not null, note: '[Instruction]']
}

Table RecipeSectionIngredient {
  id String [pk]
  recipeSection RecipeSection [not null]
  recipeSectionId String [not null]
  ingredient Ingredient [not null, note: 'pointer to an ingredient']
  ingredientId String [not null]
  amounts Json[] [not null, note: '[Amount]']
  createdAt DateTime [default: `now()`, not null]
  updatedAt DateTime [default: `now()`, not null]
  deletedAt DateTime
}

Table Ingredient {
  id String [pk]
  name String [unique, not null]
  aliases String[] [not null]
  createdAt DateTime [default: `now()`, not null]
  updatedAt DateTime [default: `now()`, not null]
  deletedAt DateTime
  Recipe Recipe [note: 'can be a placeholder of sorts that points to a recipe']
  recipeId String [unique]
  RecipeSectionIngredient RecipeSectionIngredient [not null]
  Product Product [not null]
}

Table Product {
  id String [pk]
  name String [not null]
  manufacturer String [not null]
  upc String [unique]
  ndb_number Int [unique]
  model String
  createdAt DateTime [default: `now()`, not null]
  updatedAt DateTime [default: `now()`, not null]
  deletedAt DateTime
  Ingredient Ingredient
  ingredientId String
  unitMappings ProductUnitMappings [not null]
  InventoryEntry InventoryEntry [not null]
  images ProductImage [not null]

  indexes {
    (name, manufacturer) [unique]
  }
}

Table ProductUnitMappings {
  id String [pk]
  product Product [not null]
  productId String [not null]
  a Json [not null, note: '[Amount]']
  b Json [not null, note: '[Amount]']
  source String
  createdAt DateTime [default: `now()`, not null]
  updatedAt DateTime [default: `now()`, not null]
  deletedAt DateTime
}

Table InventoryEntry {
  id String [pk]
  Product Product [not null, note: 'what is the product']
  productId String [not null]
  amount Json [not null, note: '[Amount]']
  createdAt DateTime [default: `now()`, not null]
  updatedAt DateTime [default: `now()`, not null]
  deletedAt DateTime
  location Location [not null, note: 'where is the product']
  locationId String [not null]

  indexes {
    (productId, locationId) [unique]
  }

  Note: 'holds a mapping between an product and a location'
}

Table Location {
  id String [pk]
  name String [unique, not null]
  createdAt DateTime [default: `now()`, not null]
  updatedAt DateTime [default: `now()`, not null]
  deletedAt DateTime
  lastBulkInventory DateTime
  parent Location
  parentId String
  children Location [not null]
  InventoryEntries InventoryEntry [not null, note: 'products that are in this location']
  images LocationImage [not null]
  type String [not null]
}

Table usda_branded_food {
  fdc_id Int [pk]
  brand_owner String
  brand_name String
  subbrand_name String
  gtin_upc String [not null]
  ingredients String
  not_a_significant_source_of String
  serving_size Decimal
  serving_size_unit String
  household_serving_fulltext String
  branded_food_category String
  data_source String
  package_weight String
  modified_date String
  available_date String
  market_country String
  discontinued_date String
  preparation_state_code String
  trade_channel String
  short_description String
  material_code String
  food usda_food [not null]
}

Table usda_food {
  fdc_id Int [pk]
  data_type String [not null]
  description String [not null]
  food_category_id String [not null]
  publication_date String [not null]
  branded_food usda_branded_food
  food_nutrient usda_food_nutrient [not null]
  food_portion usda_food_portion [not null]
}

Table usda_food_nutrient {
  id Int [pk]
  fdc_id Int [not null]
  nutrient_id Int [not null]
  amount Decimal [not null]
  data_points String [not null]
  derivation_id String [not null]
  min String [not null]
  max String [not null]
  median String [not null]
  loq String [not null]
  footnote String [not null]
  min_year_acquired String [not null]
  percent_daily_value String [not null]
  nutrient usda_nutrient [not null]
  food usda_food [not null]
}

Table usda_nutrient {
  id Int [pk]
  name String [not null]
  unit_name String [not null]
  nutrient_nbr String [not null]
  rank String [not null]
  food_nutrient usda_food_nutrient [not null]
}

Table usda_measure_unit {
  id Int [pk]
  name String [not null]
  usda_food_portion usda_food_portion [not null]
}

Table usda_food_portion {
  id Int [pk]
  fdc_id Int [not null]
  food usda_food [not null]
  seq_num String
  amount Decimal [not null]
  measure_unit_id Int [not null]
  measure_unit usda_measure_unit [not null]
  portion_description String
  modifier String
  gram_weight Decimal [not null]
  data_points String
  footnote String
  min_year_acquired String
}

Table usda_sr_legacy_food {
  fdc_id Int [pk]
  NDB_number Int [unique, not null]
}

Table Image {
  id String [pk]
  url String [not null]
  key String [unique, not null]
  filename String [not null]
  size Int [not null]
  contentType String [not null]
  status ImageStatus [not null, default: 'PENDING']
  createdAt DateTime [default: `now()`, not null]
  updatedAt DateTime [default: `now()`, not null]
  deletedAt DateTime
  productImages ProductImage [not null]
  locationImages LocationImage [not null]
  recipeImages RecipeImage [not null]
}

Table ProductImage {
  id String [pk]
  product Product [not null]
  productId String [not null]
  image Image [not null]
  imageId String [not null]
  createdAt DateTime [default: `now()`, not null]
  updatedAt DateTime [default: `now()`, not null]
  deletedAt DateTime

  indexes {
    (productId, imageId) [unique]
  }
}

Table LocationImage {
  id String [pk]
  location Location [not null]
  locationId String [not null]
  image Image [not null]
  imageId String [not null]
  createdAt DateTime [default: `now()`, not null]
  updatedAt DateTime [default: `now()`, not null]
  deletedAt DateTime

  indexes {
    (locationId, imageId) [unique]
  }
}

Table RecipeImage {
  id String [pk]
  recipe Recipe [not null]
  recipeId String [not null]
  image Image [not null]
  imageId String [not null]
  createdAt DateTime [default: `now()`, not null]
  updatedAt DateTime [default: `now()`, not null]
  deletedAt DateTime

  indexes {
    (recipeId, imageId) [unique]
  }
}

Enum RecipeSource {
  Book
  Website
  Other
}

Enum ImageStatus {
  PENDING
  UPLOADED
  FAILED
}

Ref: RecipeSection.recipeId > Recipe.id

Ref: RecipeSectionIngredient.recipeSectionId > RecipeSection.id

Ref: RecipeSectionIngredient.ingredientId > Ingredient.id

Ref: Ingredient.recipeId - Recipe.id

Ref: Product.ingredientId > Ingredient.id

Ref: ProductUnitMappings.productId > Product.id

Ref: InventoryEntry.productId > Product.id

Ref: InventoryEntry.locationId > Location.id

Ref: Location.parentId - Location.id

Ref: usda_branded_food.fdc_id - usda_food.fdc_id [delete: No Action]

Ref: usda_food_nutrient.nutrient_id > usda_nutrient.id [delete: No Action]

Ref: usda_food_nutrient.fdc_id > usda_food.fdc_id [delete: No Action]

Ref: usda_food_portion.fdc_id > usda_food.fdc_id [delete: No Action]

Ref: usda_food_portion.measure_unit_id > usda_measure_unit.id [delete: No Action]

Ref: ProductImage.productId > Product.id

Ref: ProductImage.imageId > Image.id

Ref: LocationImage.locationId > Location.id

Ref: LocationImage.imageId > Image.id

Ref: RecipeImage.recipeId > Recipe.id

Ref: RecipeImage.imageId > Image.id