//// ------------------------------------------------------
//// THIS FILE WAS AUTOMATICALLY GENERATED (DO NOT MODIFY)
//// ------------------------------------------------------

Table Project {
  id String [pk]
  name String [not null]
  description String
  createdAt DateTime [default: `now()`, not null]
  updatedAt DateTime [default: `now()`, not null]
  deletedAt DateTime
  members ProjectMember [not null]
  recipes Recipe [not null]
  products Product [not null]
  ingredients Ingredient [not null]
  locations Location [not null]
  inventoryEntries InventoryEntry [not null]
  images Image [not null]
}

Table User {
  id String [pk]
  email String [unique, not null]
  firstName String
  lastName String
  imageUrl String
  createdAt DateTime [default: `now()`, not null]
  updatedAt DateTime [default: `now()`, not null]
  projects ProjectMember [not null]
}

Table ProjectMember {
  id String [pk]
  project Project [not null]
  projectId String [not null]
  user User [not null]
  userId String [not null]
  joinedAt DateTime [default: `now()`, not null]

  indexes {
    (projectId, userId) [unique]
  }
}

Table Recipe {
  id String [pk]
  projectId String [not null]
  project Project [not null]
  name String [not null]
  createdAt DateTime [default: `now()`, not null]
  updatedAt DateTime [default: `now()`, not null]
  deletedAt DateTime
  sections RecipeSection [not null]
  pointerIngredient Ingredient
  SourceType RecipeSource
  SourceData String
  images RecipeImage [not null]

  indexes {
    (projectId, name) [unique]
  }
}

Table RecipeSection {
  id String [pk]
  recipe Recipe [not null]
  recipeId String [not null]
  name String
  createdAt DateTime [default: `now()`, not null]
  updatedAt DateTime [default: `now()`, not null]
  deletedAt DateTime
  ingredients RecipeSectionIngredient [not null]
  instructions Json[] [not null, note: '[Instruction]']
}

Table RecipeSectionIngredient {
  id String [pk]
  recipeSection RecipeSection [not null]
  recipeSectionId String [not null]
  ingredient Ingredient [not null, note: 'pointer to an ingredient']
  ingredientId String [not null]
  amounts Json[] [not null, note: '[Amount]']
  createdAt DateTime [default: `now()`, not null]
  updatedAt DateTime [default: `now()`, not null]
  deletedAt DateTime
}

Table Ingredient {
  id String [pk]
  projectId String [not null]
  project Project [not null]
  name String [not null]
  aliases String[] [not null]
  createdAt DateTime [default: `now()`, not null]
  updatedAt DateTime [default: `now()`, not null]
  deletedAt DateTime
  Recipe Recipe [note: 'can be a placeholder of sorts that points to a recipe']
  recipeId String [unique]
  RecipeSectionIngredient RecipeSectionIngredient [not null]
  Product Product [not null]

  indexes {
    (projectId, name) [unique]
  }
}

Table Product {
  id String [pk]
  projectId String [not null]
  project Project [not null]
  name String [not null]
  manufacturer String [not null]
  upc String [unique]
  ndb_number Int [unique]
  model String
  expectedQuantity Int
  createdAt DateTime [default: `now()`, not null]
  updatedAt DateTime [default: `now()`, not null]
  deletedAt DateTime
  Ingredient Ingredient
  ingredientId String
  unitMappings ProductUnitMappings [not null]
  InventoryEntry InventoryEntry [not null]
  images ProductImage [not null]

  indexes {
    (projectId, name, manufacturer) [unique]
  }
}

Table ProductUnitMappings {
  id String [pk]
  product Product [not null]
  productId String [not null]
  a Json [not null, note: '[Amount]']
  b Json [not null, note: '[Amount]']
  source String
  createdAt DateTime [default: `now()`, not null]
  updatedAt DateTime [default: `now()`, not null]
  deletedAt DateTime
}

Table InventoryEntry {
  id String [pk]
  projectId String [not null]
  project Project [not null]
  Product Product [not null, note: 'what is the product']
  productId String [not null]
  amount Json [not null, note: '[Amount]']
  createdAt DateTime [default: `now()`, not null]
  updatedAt DateTime [default: `now()`, not null]
  deletedAt DateTime
  location Location [not null, note: 'where is the product']
  locationId String [not null]

  indexes {
    (productId, locationId) [unique]
  }

  Note: 'holds a mapping between an product and a location'
}

Table Location {
  id String [pk]
  projectId String [not null]
  project Project [not null]
  name String [not null]
  createdAt DateTime [default: `now()`, not null]
  updatedAt DateTime [default: `now()`, not null]
  deletedAt DateTime
  lastBulkInventory DateTime
  parent Location
  parentId String
  children Location [not null]
  InventoryEntries InventoryEntry [not null, note: 'products that are in this location']
  images LocationImage [not null]
  type String [not null]

  indexes {
    (projectId, name) [unique]
  }
}

Table Image {
  id String [pk]
  projectId String [not null]
  project Project [not null]
  url String [not null]
  key String [unique, not null]
  filename String [not null]
  size Int [not null]
  contentType String [not null]
  status ImageStatus [not null, default: 'PENDING']
  createdAt DateTime [default: `now()`, not null]
  updatedAt DateTime [default: `now()`, not null]
  deletedAt DateTime
  productImages ProductImage [not null]
  locationImages LocationImage [not null]
  recipeImages RecipeImage [not null]
}

Table ProductImage {
  id String [pk]
  product Product [not null]
  productId String [not null]
  image Image [not null]
  imageId String [not null]
  createdAt DateTime [default: `now()`, not null]
  updatedAt DateTime [default: `now()`, not null]
  deletedAt DateTime

  indexes {
    (productId, imageId) [unique]
  }
}

Table LocationImage {
  id String [pk]
  location Location [not null]
  locationId String [not null]
  image Image [not null]
  imageId String [not null]
  createdAt DateTime [default: `now()`, not null]
  updatedAt DateTime [default: `now()`, not null]
  deletedAt DateTime

  indexes {
    (locationId, imageId) [unique]
  }
}

Table RecipeImage {
  id String [pk]
  recipe Recipe [not null]
  recipeId String [not null]
  image Image [not null]
  imageId String [not null]
  createdAt DateTime [default: `now()`, not null]
  updatedAt DateTime [default: `now()`, not null]
  deletedAt DateTime

  indexes {
    (recipeId, imageId) [unique]
  }
}

Enum RecipeSource {
  Book
  Website
  Other
}

Enum ImageStatus {
  PENDING
  UPLOADED
  FAILED
}

Ref: ProjectMember.projectId > Project.id

Ref: ProjectMember.userId > User.id

Ref: Recipe.projectId > Project.id

Ref: RecipeSection.recipeId > Recipe.id

Ref: RecipeSectionIngredient.recipeSectionId > RecipeSection.id

Ref: RecipeSectionIngredient.ingredientId > Ingredient.id

Ref: Ingredient.projectId > Project.id

Ref: Ingredient.recipeId - Recipe.id

Ref: Product.projectId > Project.id

Ref: Product.ingredientId > Ingredient.id

Ref: ProductUnitMappings.productId > Product.id

Ref: InventoryEntry.projectId > Project.id

Ref: InventoryEntry.productId > Product.id

Ref: InventoryEntry.locationId > Location.id

Ref: Location.projectId > Project.id

Ref: Location.parentId - Location.id

Ref: Image.projectId > Project.id

Ref: ProductImage.productId > Product.id

Ref: ProductImage.imageId > Image.id

Ref: LocationImage.locationId > Location.id

Ref: LocationImage.imageId > Image.id

Ref: RecipeImage.recipeId > Recipe.id

Ref: RecipeImage.imageId > Image.id